<svg width="18" height="25" viewBox="0 0 18 25" xmlns="http://www.w3.org/2000/svg">
<path d="M9 11.45C8.24224 11.45 7.51551 11.1603 6.9797 10.6445C6.44388 10.1288 6.14286 9.42935 6.14286 8.7C6.14286 7.97065 6.44388 7.27118 6.9797 6.75546C7.51551 6.23973 8.24224 5.95 9 5.95C9.75776 5.95 10.4845 6.23973 11.0203 6.75546C11.5561 7.27118 11.8571 7.97065 11.8571 8.7C11.8571 9.06114 11.7832 9.41873 11.6397 9.75238C11.4961 10.086 11.2856 10.3892 11.0203 10.6445C10.755 10.8999 10.44 11.1025 10.0934 11.2407C9.74674 11.3789 9.37521 11.45 9 11.45ZM9 1C6.87827 1 4.84344 1.81125 3.34315 3.25528C1.84285 4.69931 1 6.65783 1 8.7C1 14.475 9 23 9 23C9 23 17 14.475 17 8.7C17 6.65783 16.1571 4.69931 14.6569 3.25528C13.1566 1.81125 11.1217 1 9 1Z" fill="#18AC91" stroke="#061134" stroke-width="2"/>
</svg>
