<svg width="20" height="20" viewBox="0 0 20 20" fill="none" xmlns="http://www.w3.org/2000/svg">
<path d="M10.0006 0C4.5798 0 0.00118434 4.57862 0.00118434 9.99941C0.00118434 11.5915 0.530042 12.9648 1.05223 14.0336L0.0267384 18.6467C-0.014068 18.8293 -0.00808648 19.0193 0.0441279 19.199C0.0963422 19.3787 0.193098 19.5423 0.325418 19.6746C0.457738 19.8069 0.621335 19.9037 0.801031 19.9559C0.980728 20.0081 1.1707 20.0141 1.35333 19.9733L5.96639 18.9478C7.03521 19.47 8.40846 19.9988 10.0006 19.9988C15.4214 19.9988 20 15.4202 20 9.99941C20 4.57862 15.4214 0 10.0006 0ZM10.0006 17.7767C8.97176 17.7767 7.96182 17.4812 6.6219 16.789C6.39039 16.6705 6.12496 16.636 5.87084 16.6912L2.57548 17.4234L3.30765 14.1281C3.36442 13.874 3.3298 13.608 3.20988 13.377C2.51881 12.0382 2.22327 11.0282 2.22327 9.99941C2.22327 5.7841 5.78529 2.22209 10.0006 2.22209C14.2159 2.22209 17.7779 5.7841 17.7779 9.99941C17.7779 14.2147 14.2159 17.7767 10.0006 17.7767Z" fill="#061134"/>
<path d="M14.187 11.7115C13.9581 11.596 12.8304 11.0416 12.6204 10.966C12.4104 10.8905 12.2571 10.8505 12.1049 11.0816C11.9505 11.3104 11.5105 11.8271 11.3783 11.9793C11.245 12.1326 11.1105 12.1515 10.8816 12.0359C10.6528 11.9204 9.91392 11.6815 9.0373 10.8993C8.35734 10.2916 7.89737 9.54054 7.76294 9.31167C7.62961 9.08168 7.7496 8.95613 7.86404 8.8428C7.96848 8.74059 8.09292 8.57615 8.20735 8.44283C8.32401 8.3095 8.3629 8.21395 8.43956 8.05841C8.51511 7.90619 8.47734 7.77398 8.42067 7.65843C8.36179 7.54399 7.90404 6.41517 7.71294 5.9552C7.52628 5.51078 7.3374 5.56967 7.19741 5.563L6.75522 5.55522C6.63918 5.55814 6.525 5.58501 6.41984 5.63414C6.31469 5.68328 6.22082 5.75362 6.14414 5.84076C5.93527 6.07186 5.34308 6.62516 5.34308 7.75398C5.34308 8.8828 6.16525 9.97385 6.27858 10.1272C6.39413 10.2794 7.89515 12.5959 10.1939 13.5881C10.7405 13.8236 11.1683 13.9636 11.5016 14.0703C12.0505 14.2447 12.5504 14.2203 12.946 14.1625C13.3859 14.0958 14.3025 13.607 14.4936 13.0726C14.6847 12.5359 14.6847 12.0782 14.627 11.9815C14.5681 11.8837 14.4159 11.8282 14.187 11.7115Z" fill="#061134"/>
</svg>
