<svg width="120" height="120" viewBox="0 0 120 120" fill="none" xmlns="http://www.w3.org/2000/svg">
<path d="M55 35.4995C48.7749 35.9932 16.1659 47.3742 9.15535 57.292C5.65045 65.9162 10.1565 82.3015 22.175 89.2009C34.1935 96.1003 80.2643 94.3754 93.2844 91.357C106.304 88.3385 114.317 77.5582 115.819 71.0901C117.321 64.6219 109.309 49.0983 97.7913 42.6301C86.2736 36.162 62.9988 34.8652 55 35.4995Z" fill="#E1EFFF"/>
<path fill-rule="evenodd" clip-rule="evenodd" d="M28 72C30.2091 72 32 70.2091 32 68C32 65.7909 30.2091 64 28 64C25.7909 64 24 65.7909 24 68C24 70.2091 25.7909 72 28 72ZM28 76C32.4183 76 36 72.4183 36 68C36 63.5817 32.4183 60 28 60C23.5817 60 20 63.5817 20 68C20 72.4183 23.5817 76 28 76Z" fill="#061134"/>
<path fill-rule="evenodd" clip-rule="evenodd" d="M14 108C12.8954 108 12 107.105 12 106V54C12 52.8954 12.8954 52 14 52C15.1046 52 16 52.8954 16 54V77C16 77.5523 16.4477 78 17 78H106C107.105 78 108 78.8954 108 80V106C108 107.105 107.105 108 106 108C104.895 108 104 107.105 104 106V99C104 98.4477 103.552 98 103 98H17C16.4477 98 16 98.4477 16 99V106C16 107.105 15.1046 108 14 108ZM16 93C16 93.5523 16.4477 94 17 94H103C103.552 94 104 93.5523 104 93V83C104 82.4477 103.552 82 103 82H17C16.4477 82 16 82.4477 16 83V93Z" fill="#061134"/>
<path fill-rule="evenodd" clip-rule="evenodd" d="M107.6 72C107.733 72.6566 107.834 73.3249 107.902 74.0032C108.011 75.1024 107.105 76 106 76H42C40.8954 76 40 75.1046 40 74V64C40 59.5817 43.5817 56 48 56H88C97.6758 56 105.747 62.871 107.6 72ZM102.206 72C102.859 72 103.338 71.3825 103.124 70.765C100.956 64.4993 95.0032 60 88 60H48C45.7909 60 44 61.7909 44 64V71C44 71.5523 44.4477 72 45 72H102.206Z" fill="#061134"/>
<path fill-rule="evenodd" clip-rule="evenodd" d="M59.2572 14.1431C59.734 13.9523 60.2659 13.9523 60.7428 14.1431L98.8858 29.4003C99.9114 29.8105 100.41 30.9744 100 32C99.5898 33.0256 98.4258 33.5244 97.4003 33.1142L60.7428 18.4512C60.2659 18.2605 59.734 18.2605 59.2572 18.4512L22.5997 33.1142C21.5742 33.5244 20.4102 33.0256 20 32C19.5898 30.9744 20.0886 29.8105 21.1142 29.4003L59.2572 14.1431Z" fill="#57A5FF"/>
</svg>

