<svg width="120" height="120" viewBox="0 0 120 120" fill="none" xmlns="http://www.w3.org/2000/svg">
<path d="M88.0001 64.0003C82.2056 60.1373 31.0006 61.0001 23.0004 64C21.5008 68.4996 26.9998 81.0001 34.0001 88.4995C44.7895 100.058 70.5001 96.4993 83.0001 90.9993C95.5001 85.4993 92.0002 66.6671 88.0001 64.0003Z" fill="#FDDFD5"/>
<path fill-rule="evenodd" clip-rule="evenodd" d="M26 56C26 54.8954 26.8954 54 28 54H62.0592C63.1638 54 64.0592 54.8954 64.0592 56C64.0592 57.1046 63.1638 58 62.0592 58H31.0306C30.4716 58 30.0202 58.4566 30.0379 59.0153C30.1794 63.4949 30.849 70.0998 34.0162 76.0617C35.9894 79.7759 38.9285 83.2284 43.3409 85.7663C47.761 88.3086 53.7767 90 62 90C78.4613 90 86.1964 84.2438 90.01 77.514C93.344 71.6304 93.8924 64.6833 93.9824 59.0072C93.9912 58.4519 93.5416 58 92.9862 58H82C80.8954 58 80 57.1046 80 56C80 54.8954 80.8954 54 82 54H95.851C97.0379 54 98 54.9621 98 56.149C98.0003 62.0844 98.0008 71.5258 93.49 79.486C88.8036 87.7562 79.5387 94 62 94C53.2233 94 46.489 92.1914 41.3466 89.2337C36.1965 86.2716 32.7606 82.2241 30.4838 77.9383C25.9995 69.4974 25.9999 60.0883 26 56.0661C26 56.0439 26 56.0219 26 56Z" fill="#061134"/>
<path fill-rule="evenodd" clip-rule="evenodd" d="M88 40L86.5858 38.5858L70.5858 54.5858L73.4142 57.4142L89.4115 41.4169L89.413 41.4154L89.4142 41.4142L89.4367 41.3923C89.4588 41.3709 89.495 41.3363 89.5443 41.2902C89.6432 41.198 89.794 41.0608 89.9891 40.8935C90.3814 40.5572 90.9417 40.1092 91.6094 39.6641C93.0098 38.7305 94.6012 38 96 38V34C93.3988 34 90.9902 35.2695 89.3906 36.3359C88.5583 36.8908 87.8686 37.4428 87.3859 37.8565C87.1435 38.0642 86.9506 38.2395 86.8151 38.366C86.7472 38.4293 86.6936 38.4806 86.6551 38.5179C86.6358 38.5365 86.6203 38.5516 86.6087 38.563L86.5943 38.5773L86.5893 38.5823L86.5874 38.5842L86.5865 38.585C86.5862 38.5854 86.5858 38.5858 88 40Z" fill="#061134"/>
<path d="M96 34C97.1046 34 98 34.8954 98 36C98 37.1046 97.1046 38 96 38V34Z" fill="#061134"/>
<path fill-rule="evenodd" clip-rule="evenodd" d="M84 100C84 101.105 83.1046 102 82 102H42C40.8954 102 40 101.105 40 100C40 98.8954 40.8954 98 42 98H82C83.1046 98 84 98.8954 84 100Z" fill="#061134"/>
<path fill-rule="evenodd" clip-rule="evenodd" d="M71.8958 20.7882C71.8958 20.7882 71.8944 20.7889 71 19C70.1056 17.2112 70.1041 17.2119 70.1041 17.2119L70.1025 17.2127L70.0989 17.2146L70.0899 17.2191L70.0655 17.2316C70.0464 17.2415 70.0216 17.2544 69.9914 17.2705C69.9312 17.3026 69.8497 17.3471 69.7499 17.4042C69.5506 17.5181 69.2767 17.6827 68.9531 17.8984C68.3093 18.3277 67.4502 18.9714 66.5858 19.8358C64.8678 21.5538 63 24.2825 63 28C63 29.8695 63.4787 31.3187 64.2965 32.4924C65.0583 33.5857 66.0484 34.3283 66.7727 34.8714L66.7999 34.8919C67.6031 35.4943 68.0954 35.8726 68.4507 36.3563C68.7449 36.7567 69 37.3149 69 38.3336C69 40.4616 67.8595 42.4205 66.4971 43.9721C65.8345 44.7268 65.1671 45.3298 64.6656 45.7431C64.4162 45.9485 64.2116 46.104 64.0743 46.2049C64.0057 46.2553 63.9541 46.2918 63.9225 46.3138L63.8904 46.336C63.8877 46.3379 63.8864 46.3388 63.8864 46.3388L63.8874 46.3381L63.8896 46.3366C63.8896 46.3366 63.8906 46.3359 65 48C66.1094 49.6641 66.1105 49.6634 66.1105 49.6634L66.1148 49.6606L66.1223 49.6555L66.144 49.6408C66.1612 49.629 66.1841 49.6133 66.2123 49.5936C66.2685 49.5544 66.3459 49.4994 66.4414 49.4293C66.6321 49.2893 66.8963 49.088 67.2094 48.83C67.8329 48.3162 68.6655 47.565 69.5029 46.6114C71.1405 44.7463 73 41.872 73 38.3336C73 36.519 72.5051 35.1189 71.6743 33.9881C70.9472 32.9984 70.0076 32.2959 69.3185 31.7806C69.2781 31.7504 69.2386 31.7209 69.2001 31.6919C68.4266 31.1118 67.9321 30.7133 67.5785 30.2057C67.2713 29.7648 67 29.1306 67 28C67 25.7176 68.1322 23.9463 69.4142 22.6643C70.0498 22.0287 70.6907 21.5474 71.1719 21.2266C71.4108 21.0674 71.6057 20.9507 71.7345 20.8772C71.7987 20.8404 71.8461 20.8147 71.8738 20.7999L71.9001 20.7861L71.899 20.7866L71.897 20.7876L71.8958 20.7882Z" fill="#FFA384"/>
<path fill-rule="evenodd" clip-rule="evenodd" d="M59.8958 20.7882C59.8951 20.7886 59.8944 20.7889 59 19C58.1056 17.2112 58.1049 17.2116 58.1041 17.2119L58.1025 17.2127L58.0989 17.2146L58.0899 17.2191L58.0655 17.2316C58.0464 17.2415 58.0216 17.2544 57.9914 17.2705C57.9312 17.3026 57.8497 17.3471 57.7499 17.4042C57.5506 17.5181 57.2767 17.6827 56.9531 17.8984C56.3093 18.3277 55.4502 18.9714 54.5858 19.8358C52.8678 21.5538 51 24.2825 51 28C51 29.8695 51.4787 31.3187 52.2965 32.4924C53.0583 33.5857 54.0484 34.3283 54.7727 34.8714L54.7999 34.8919C55.6031 35.4943 56.0954 35.8726 56.4507 36.3563C56.7449 36.7567 57 37.3149 57 38.3336C57 40.4616 55.8595 42.4205 54.4971 43.9721C53.8345 44.7268 53.1671 45.3298 52.6656 45.7431C52.4162 45.9485 52.2116 46.104 52.0743 46.2049C52.0057 46.2553 51.9541 46.2918 51.9225 46.3138L51.8904 46.336C51.8877 46.3379 51.8863 46.3388 51.8864 46.3388L51.8874 46.3381L51.8896 46.3366C51.8901 46.3363 51.8906 46.3359 53 48C54.1094 49.6641 54.11 49.6638 54.1105 49.6634L54.1148 49.6606L54.1223 49.6555L54.144 49.6408C54.1612 49.629 54.1841 49.6133 54.2123 49.5936C54.2685 49.5544 54.3459 49.4994 54.4414 49.4293C54.6321 49.2893 54.8963 49.088 55.2094 48.83C55.8329 48.3162 56.6655 47.565 57.5029 46.6114C59.1405 44.7463 61 41.872 61 38.3336C61 36.519 60.5051 35.1189 59.6743 33.9881C58.9472 32.9984 58.0076 32.2959 57.3185 31.7806C57.2781 31.7504 57.2386 31.7209 57.2001 31.6919C56.4266 31.1118 55.9321 30.7133 55.5785 30.2057C55.2713 29.7648 55 29.1306 55 28C55 25.7176 56.1322 23.9463 57.4142 22.6643C58.0498 22.0287 58.6907 21.5474 59.1719 21.2266C59.4108 21.0674 59.6057 20.9507 59.7345 20.8772C59.7987 20.8404 59.8461 20.8147 59.8738 20.7999L59.9001 20.7861L59.899 20.7866L59.897 20.7876L59.8958 20.7882ZM59.9018 20.7852C59.9018 20.7852 59.9013 20.7855 59.9001 20.7861L59.9018 20.7852Z" fill="#FFA384"/>
</svg>

