<svg width="120" height="120" viewBox="0 0 120 120" fill="none" xmlns="http://www.w3.org/2000/svg">
<path d="M81.5259 22.6787C72.5745 5.02871 46.2629 18.333 34.2259 27.1914C23.5453 33.8403 27.6141 62.7923 38.8034 78.3363C49.9926 93.8803 81.5259 83.3505 87.1205 68.308C90.8306 58.3325 92.7151 44.7411 81.5259 22.6787Z" fill="#FDD5D5"/>
<path d="M78 81C78 80.4477 78.4477 80 79 80H81C81.5523 80 82 80.4477 82 81V91C82 91.5523 81.5523 92 81 92H79C78.4477 92 78 91.5523 78 91V81Z" fill="#FF5B5B"/>
<path d="M85 84C85.5523 84 86 84.4477 86 85V87C86 87.5523 85.5523 88 85 88L75 88C74.4477 88 74 87.5523 74 87L74 85C74 84.4477 74.4477 84 75 84L85 84Z" fill="#FF5B5B"/>
<path fill-rule="evenodd" clip-rule="evenodd" d="M60.0001 24C64.4184 24 68.0001 20.4183 68.0001 16C68.0001 11.5817 64.4184 8 60.0001 8C55.5818 8 52.0001 11.5817 52.0001 16C52.0001 20.4183 55.5818 24 60.0001 24ZM60.0001 28C66.6275 28 72.0001 22.6274 72.0001 16C72.0001 9.37258 66.6275 4 60.0001 4C53.3727 4 48.0001 9.37258 48.0001 16C48.0001 22.6274 53.3727 28 60.0001 28Z" fill="#061134"/>
<path fill-rule="evenodd" clip-rule="evenodd" d="M60 58C61.1046 58 62 57.1046 62 56C62 54.8954 61.1046 54 60 54C58.8954 54 58 54.8954 58 56C58 57.1046 58.8954 58 60 58ZM60 62C63.3137 62 66 59.3137 66 56C66 52.6863 63.3137 50 60 50C56.6863 50 54 52.6863 54 56C54 59.3137 56.6863 62 60 62Z" fill="#061134"/>
<path fill-rule="evenodd" clip-rule="evenodd" d="M43.2812 40.7221C42.0032 43.2247 42 45.8314 42 46H38V45.9981C38 45.6561 37.9999 42.269 39.7188 38.9029C40.5949 37.1872 41.9377 35.4372 43.9802 34.1228C46.0309 32.8032 48.6673 32 52 32H68.0001V33.9889C68.0001 32 68.0011 32 68.0022 32L68.0046 32L68.0102 32L68.0247 32.0001L68.0668 32.0006C68.1006 32.0012 68.1457 32.0022 68.2015 32.004C68.313 32.0078 68.4672 32.0149 68.6582 32.0285C69.0395 32.0558 69.5712 32.1093 70.2039 32.2147C71.4599 32.424 73.1651 32.8464 74.8945 33.7111C76.6318 34.5798 78.4299 35.9141 79.7892 37.9531C81.1569 40.0046 82.0001 42.65 82.0001 46H78.0001C78.0001 43.35 77.3433 41.4954 76.461 40.1719C75.5703 38.8359 74.3684 37.9202 73.1057 37.2889C71.8351 36.6536 70.5403 36.326 69.5463 36.1603C69.054 36.0782 68.6482 36.038 68.3732 36.0184C68.2361 36.0086 68.1325 36.004 68.0682 36.0018C68.0361 36.0007 68.0139 36.0003 68.0023 36.0001L67.9944 36L67.9983 36C67.9992 36 68.0001 36 68.0001 34.0122V36H52C49.3327 36 47.4691 36.6343 46.1448 37.4865C44.8123 38.344 43.9051 39.5003 43.2812 40.7221Z" fill="#061134"/>
<path fill-rule="evenodd" clip-rule="evenodd" d="M46.0001 111.556V78H50.0001V111.543C50.0001 111.544 50.0001 111.544 50.0002 111.546C50.0005 111.557 50.0014 111.582 50.0038 111.618C50.0085 111.692 50.0188 111.809 50.0405 111.953C50.0854 112.253 50.1715 112.618 50.3239 112.957C50.4752 113.293 50.6619 113.538 50.878 113.698C51.0709 113.841 51.3963 114 52.0001 114C52.5719 114 52.8672 113.901 53.0101 113.829C53.1358 113.766 53.2316 113.682 53.3319 113.527C53.4488 113.346 53.5676 113.071 53.6907 112.639C53.7878 112.299 53.8641 111.952 53.9557 111.536C53.9798 111.427 54.005 111.313 54.0318 111.193L58.0208 83.7127L61.9794 84.2873L57.9683 111.919L57.9513 111.995C57.9274 112.101 57.9027 112.216 57.8764 112.338C57.6752 113.272 57.384 114.624 56.6933 115.695C56.2561 116.373 55.6456 116.984 54.7995 117.407C53.9704 117.821 53.0283 118 52.0001 118C50.6039 118 49.4293 117.603 48.4971 116.913C47.5883 116.239 47.025 115.373 46.6763 114.599C46.3287 113.826 46.1648 113.081 46.0847 112.547C46.0439 112.275 46.0229 112.044 46.012 111.875C46.0066 111.79 46.0036 111.719 46.002 111.665C46.0012 111.639 46.0007 111.616 46.0004 111.597L46.0002 111.573L46.0001 111.563L46.0001 111.559L46.0001 111.557C46.0001 111.556 46.0001 111.556 48.0001 111.556H46.0001Z" fill="#061134"/>
<path fill-rule="evenodd" clip-rule="evenodd" d="M58.0212 84.2902L62.04 111.692L62.0751 111.817C62.1263 111.998 62.1765 112.2 62.2393 112.452L62.2434 112.469C62.3052 112.717 62.3773 113.006 62.4611 113.303C62.6267 113.89 62.8616 114.599 63.2424 115.279C63.6307 115.972 64.1949 116.68 65.033 117.205C65.8806 117.737 66.8788 118 68 118C69.4261 118 70.6173 117.567 71.5501 116.833C72.4531 116.121 73.0038 115.215 73.3419 114.416C73.6803 113.617 73.8399 112.845 73.9179 112.292C73.9576 112.01 73.978 111.772 73.9885 111.598C73.9938 111.51 73.9967 111.438 73.9982 111.383C73.999 111.356 73.9994 111.333 73.9997 111.315L73.9999 111.291L74 111.281L74 111.276C74 111.275 74 111.274 72 111.274H74V96.3077H70V111.263C70 111.265 69.9999 111.268 69.9998 111.271C69.9994 111.285 69.9984 111.314 69.9958 111.356C69.9907 111.44 69.9799 111.571 69.9571 111.733C69.9101 112.066 69.8197 112.476 69.6581 112.857C69.4962 113.24 69.2969 113.516 69.0749 113.69C68.8827 113.842 68.5739 114 68 114C67.5212 114 67.2819 113.894 67.1576 113.816C67.0238 113.732 66.8818 113.591 66.7326 113.324C66.5759 113.045 66.4421 112.682 66.3108 112.217C66.2461 111.988 66.1878 111.755 66.125 111.503L66.1147 111.461C66.0675 111.272 66.0159 111.064 65.9609 110.861L61.9788 83.7098L58.0212 84.2902Z" fill="#061134"/>
<path fill-rule="evenodd" clip-rule="evenodd" d="M40 72C38.8954 72 38 71.1046 38 70V46C38 44.8954 38.8954 44 40 44C41.1046 44 42 44.8954 42 46V70C42 71.1046 41.1046 72 40 72Z" fill="#061134"/>
<path fill-rule="evenodd" clip-rule="evenodd" d="M58 53V44H62V53H58Z" fill="#061134"/>
<path fill-rule="evenodd" clip-rule="evenodd" d="M78 74L78.0001 46H82.0001L82 74H78Z" fill="#061134"/>
<path fill-rule="evenodd" clip-rule="evenodd" d="M48.9134 41.8379C46.7026 39.3814 46 36.3592 46 34H50C50 35.6408 50.4974 37.6186 51.8866 39.1621C53.2305 40.6554 55.6411 42 60 42C64.3589 42 66.7695 40.6554 68.1134 39.1621C69.5026 37.6186 70 35.6408 70 34H74C74 36.3592 73.2975 39.3814 71.0866 41.8379C68.8306 44.3446 65.2411 46 60 46C54.7589 46 51.1695 44.3446 48.9134 41.8379Z" fill="#061134"/>
<path fill-rule="evenodd" clip-rule="evenodd" d="M90.6667 76H69.3333C68.8334 76 68.4573 76.1817 68.238 76.3791C68.0254 76.5704 68 76.7245 68 76.8V95.2C68 95.2755 68.0254 95.4296 68.238 95.6209C68.4573 95.8183 68.8334 96 69.3333 96H90.6667C91.1666 96 91.5427 95.8183 91.762 95.6209C91.9746 95.4296 92 95.2755 92 95.2V76.8C92 76.7245 91.9746 76.5704 91.762 76.3791C91.5427 76.1817 91.1666 76 90.6667 76ZM69.3333 72C66.3878 72 64 74.149 64 76.8V95.2C64 97.851 66.3878 100 69.3333 100H90.6667C93.6122 100 96 97.851 96 95.2V76.8C96 74.149 93.6122 72 90.6667 72H69.3333Z" fill="#061134"/>
<path d="M46.0001 78C46.0001 76.8954 46.8954 76 48 76C49.1046 76 50.0001 76.8954 50.0001 78H46.0001Z" fill="#061134"/>
<path d="M58 84C58 82.8954 58.8954 82 60 82C61.1046 82 62 82.8954 62 84H58Z" fill="#061134"/>
</svg>

