<svg width="120" height="120" viewBox="0 0 120 120" fill="none" xmlns="http://www.w3.org/2000/svg">
<path d="M84.9997 110C89.2711 107.699 96.4425 98.7398 97.9998 91.0005C98.8273 86.8881 95.5969 68.9887 93.5221 64.3028C90.9287 58.4455 75.2858 58.642 67.5002 57.5005C59.7147 56.3589 25.8364 61.8118 22.9029 69.5005C18.8527 80.116 21.5002 97.0001 22.9029 101.51C24.1222 105.431 31.8962 110.832 36.7639 111.602C41.6315 112.373 78.5002 113.5 84.9997 110Z" fill="#DBEBE6"/>
<path fill-rule="evenodd" clip-rule="evenodd" d="M76 12H44C41.7909 12 40 13.7909 40 16V40C40 42.2091 41.7909 44 44 44H76C78.2091 44 80 42.2091 80 40V16C80 13.7909 78.2091 12 76 12ZM44 8C39.5817 8 36 11.5817 36 16V40C36 44.4183 39.5817 48 44 48H76C80.4183 48 84 44.4183 84 40V16C84 11.5817 80.4183 8 76 8H44Z" fill="#061134"/>
<path fill-rule="evenodd" clip-rule="evenodd" d="M47.4996 58.0619C46.543 57.5096 46.2153 56.2864 46.7676 55.3298L52.2431 45.8459C52.7954 44.8893 54.0186 44.5616 54.9752 45.1139C55.9317 45.6661 56.2595 46.8893 55.7072 47.8459L50.2317 57.3298C49.6794 58.2864 48.4562 58.6141 47.4996 58.0619Z" fill="#061134"/>
<path d="M38 92H42C42 84.268 35.732 78 28 78C20.268 78 14 84.268 14 92H18C18 86.4771 22.4772 82 28 82C33.5228 82 38 86.4771 38 92Z" fill="#061134"/>
<path d="M102 92H106C106 84.268 99.732 78 92 78C84.268 78 78 84.268 78 92H82C82 86.4771 86.4771 82 92 82C97.5229 82 102 86.4771 102 92Z" fill="#061134"/>
<path d="M14 92H18V114C18 115.105 17.1046 116 16 116C14.8954 116 14 115.105 14 114V92Z" fill="#061134"/>
<path d="M78 92H82V114C82 115.105 81.1046 116 80 116C78.8954 116 78 115.105 78 114V92Z" fill="#061134"/>
<path d="M38 92H42V114C42 115.105 41.1046 116 40 116C38.8954 116 38 115.105 38 114V92Z" fill="#061134"/>
<path d="M102 92H106V114C106 115.105 105.105 116 104 116C102.895 116 102 115.105 102 114V92Z" fill="#061134"/>
<path fill-rule="evenodd" clip-rule="evenodd" d="M28 69C32.4183 69 36 65.4183 36 61C36 56.5817 32.4183 53 28 53C23.5817 53 20 56.5817 20 61C20 65.4183 23.5817 69 28 69ZM28 73C34.6274 73 40 67.6274 40 61C40 54.3726 34.6274 49 28 49C21.3726 49 16 54.3726 16 61C16 67.6274 21.3726 73 28 73Z" fill="#061134"/>
<path fill-rule="evenodd" clip-rule="evenodd" d="M92 69C96.4183 69 100 65.4183 100 61C100 56.5817 96.4183 53 92 53C87.5817 53 84 56.5817 84 61C84 65.4183 87.5817 69 92 69ZM92 73C98.6274 73 104 67.6274 104 61C104 54.3726 98.6274 49 92 49C85.3726 49 80 54.3726 80 61C80 67.6274 85.3726 73 92 73Z" fill="#061134"/>
<path fill-rule="evenodd" clip-rule="evenodd" d="M60 22C58.8954 22 58 21.1046 58 20C58 18.8954 58.8954 18 60 18C61.1046 18 62 18.8954 62 20C62 21.1046 61.1046 22 60 22Z" fill="#061134"/>
<path fill-rule="evenodd" clip-rule="evenodd" d="M60 38C58.8954 38 58 37.1046 58 36V26C58 24.8954 58.8954 24 60 24C61.1046 24 62 24.8954 62 26V36C62 37.1046 61.1046 38 60 38Z" fill="#061134"/>
<path fill-rule="evenodd" clip-rule="evenodd" d="M22 28.0001C22 22.8693 23.7728 18.7128 25.3187 16.2782C25.9108 15.3458 27.1744 15.2662 28 16.0001C28.8256 16.7339 28.9109 18.0146 28.3623 18.9734C27.2626 20.8953 26 24.083 26 28.0001C26 31.9172 27.2626 35.1048 28.3623 37.0268C28.9109 37.9855 28.8256 39.2662 28 40.0001C27.1744 40.7339 25.9108 40.6543 25.3187 39.7219C23.7728 37.2873 22 33.1308 22 28.0001Z" fill="#20D19A"/>
<path fill-rule="evenodd" clip-rule="evenodd" d="M98 28.0001C98 22.8693 96.2272 18.7128 94.6813 16.2782C94.0892 15.3458 92.8256 15.2662 92 16.0001C91.1744 16.7339 91.0891 18.0146 91.6377 18.9734C92.7374 20.8953 94 24.083 94 28.0001C94 31.9172 92.7374 35.1048 91.6377 37.0268C91.0891 37.9855 91.1744 39.2662 92 40.0001C92.8256 40.7339 94.0892 40.6543 94.6813 39.7219C96.2272 37.2873 98 33.1308 98 28.0001Z" fill="#20D19A"/>
</svg>
