<svg width="120" height="120" viewBox="0 0 120 120" fill="none" xmlns="http://www.w3.org/2000/svg">
<path d="M40.4999 42.9999C36.2996 46.2314 37.4999 64.4995 35.5671 73.0113C34.5401 77.5341 33.468 86.9472 35.5679 92.1983C38.1927 98.7623 45.018 97.7524 53.4186 99.2671C61.8192 100.782 107.75 100.61 111.173 92.1983C115.898 80.5851 113.273 57.8637 113.273 53.3194C113.273 48.7752 103.823 42.7161 98.5724 41.7062C93.322 40.6964 45.7503 38.9606 40.4999 42.9999Z" fill="#FEF3DE"/>
<circle cx="28" cy="95" r="13" fill="#FFD600"/>
<path fill-rule="evenodd" clip-rule="evenodd" d="M30 44C30 38.4772 34.4772 34 40 34H100C105.523 34 110 38.4772 110 44V80C110 85.5228 105.523 90 100 90H48V86H100C103.314 86 106 83.3137 106 80V44C106 40.6863 103.314 38 100 38H40C36.6863 38 34 40.6863 34 44V72H30V44Z" fill="#061134"/>
<path d="M34 72C34 73.1046 33.1046 74 32 74C30.8954 74 30 73.1046 30 72H34Z" fill="#061134"/>
<path d="M48 90C46.8954 90 46 89.1046 46 88C46 86.8954 46.8954 86 48 86V90Z" fill="#061134"/>
<path fill-rule="evenodd" clip-rule="evenodd" d="M54 28C54 22.4772 58.4772 18 64 18H76C81.5229 18 86 22.4772 86 28V38H82V28C82 24.6863 79.3137 22 76 22H64C60.6863 22 58 24.6863 58 28V38H54V28Z" fill="#061134"/>
<path d="M25.9239 92.7778C23.4723 92.1222 22.6838 91.45 22.6838 90.3944C22.6838 89.1833 23.7693 88.3333 25.5999 88.3333C27.5223 88.3333 28.2351 89.2778 28.2999 90.6667H30.6868C30.6166 88.75 29.4772 87.0056 27.2199 86.4333V84H23.9799V86.4C21.8846 86.8722 20.1998 88.2611 20.1998 90.4111C20.1998 92.9778 22.268 94.2556 25.2759 95C27.9813 95.6667 28.516 96.6389 28.516 97.6833C28.516 98.4444 27.9921 99.6667 25.5999 99.6667C23.3751 99.6667 22.4948 98.6389 22.3814 97.3333H20C20.135 99.7667 21.9008 101.128 23.9799 101.589V104H27.2199V101.611C29.3206 101.194 31 99.9444 31 97.6611C31 94.5167 28.3756 93.4389 25.9239 92.7778Z" fill="#061134"/>
<path fill-rule="evenodd" clip-rule="evenodd" d="M26 108C33.732 108 40 101.732 40 94C40 86.268 33.732 80 26 80C18.268 80 12 86.268 12 94C12 101.732 18.268 108 26 108ZM26 112C35.9411 112 44 103.941 44 94C44 84.0589 35.9411 76 26 76C16.0589 76 8 84.0589 8 94C8 103.941 16.0589 112 26 112Z" fill="#061134"/>
</svg>
