<svg width="120" height="120" viewBox="0 0 120 120" fill="none" xmlns="http://www.w3.org/2000/svg">
<path d="M70.7794 28.1807C55.388 25.4744 41.443 53.834 36.3944 68.352C32.7102 101.757 55.6336 101.758 72.0075 98.7978C88.3813 95.8378 105.164 61.1636 103.936 41.2894C102.708 21.4152 90.0187 31.5636 70.7794 28.1807Z" fill="#E3FFE1"/>
<circle cx="82" cy="21" r="12" fill="#84E47E"/>
<path d="M82 52C82 50.8954 82.8954 50 84 50C85.1046 50 86 50.8954 86 52H82Z" fill="#061134"/>
<path d="M70 76C70 74.8954 70.8954 74 72 74C73.1046 74 74 74.8954 74 76H70Z" fill="#061134"/>
<path d="M46 76C46 74.8954 46.8954 74 48 74C49.1046 74 50 74.8954 50 76H46Z" fill="#061134"/>
<path d="M58 92C58 90.8954 58.8954 90 60 90C61.1046 90 62 90.8954 62 92H58Z" fill="#061134"/>
<path d="M34 84C34 85.1046 33.1046 86 32 86C30.8954 86 30 85.1046 30 84H34Z" fill="#061134"/>
<path fill-rule="evenodd" clip-rule="evenodd" d="M46 108V76H50V107.982C50.0003 107.99 50.0011 108.006 50.0027 108.029C50.0067 108.086 50.0157 108.179 50.0353 108.296C50.076 108.54 50.1536 108.835 50.2889 109.106C50.4202 109.368 50.5859 109.57 50.7969 109.711C50.9954 109.843 51.35 110 52 110C52.5978 110 52.9206 109.906 53.0837 109.833C53.2251 109.769 53.3084 109.694 53.3869 109.585C53.4836 109.45 53.5905 109.234 53.7074 108.865C53.8007 108.57 53.8734 108.273 53.9641 107.902C53.9936 107.782 54.0251 107.654 54.0597 107.515L58.0597 91.5149L61.9403 92.4851L57.9403 108.485C57.9173 108.577 57.8932 108.678 57.8673 108.786C57.6678 109.623 57.3619 110.905 56.6381 111.915C55.6396 113.308 54.0827 114 52 114C50.65 114 49.5046 113.657 48.5781 113.039C47.6641 112.43 47.0798 111.632 46.7111 110.894C46.3464 110.165 46.174 109.46 46.0897 108.954C46.0468 108.696 46.0245 108.477 46.0129 108.314C46.0071 108.233 46.0038 108.164 46.0021 108.112C46.0012 108.085 46.0007 108.062 46.0004 108.044L46.0001 108.019L46 108.009L46 108.004L46 108.002C46 108.002 46 108 48 108H46Z" fill="#061134"/>
<path fill-rule="evenodd" clip-rule="evenodd" d="M74 108V76H70V107.982C69.9997 107.99 69.9989 108.006 69.9973 108.029C69.9933 108.086 69.9843 108.179 69.9647 108.296C69.924 108.54 69.8464 108.835 69.7111 109.106C69.5798 109.368 69.4141 109.57 69.2031 109.711C69.0046 109.843 68.65 110 68 110C67.4648 110 67.1797 109.897 67.0327 109.819C66.8905 109.744 66.7729 109.636 66.6555 109.459C66.526 109.263 66.4075 108.998 66.2833 108.625C66.2219 108.441 66.1659 108.252 66.103 108.038L66.0921 108.001C66.0421 107.831 65.9847 107.636 65.9227 107.445L61.9403 91.5149L58.0597 92.4851L62.0783 108.56L62.1026 108.632C62.1509 108.777 62.1989 108.94 62.2634 109.16L62.2654 109.167C62.3271 109.376 62.4016 109.629 62.4886 109.89C62.6613 110.408 62.9115 111.049 63.3195 111.666C63.7396 112.301 64.3283 112.912 65.158 113.353C65.9828 113.79 66.9352 114 68 114C69.35 114 70.4954 113.657 71.4219 113.039C72.3359 112.43 72.9202 111.632 73.2889 110.894C73.6536 110.165 73.826 109.46 73.9103 108.954C73.9532 108.696 73.9755 108.477 73.9871 108.314C73.9929 108.233 73.9962 108.164 73.9979 108.112C73.9988 108.085 73.9993 108.062 73.9996 108.044L73.9999 108.019L74 108.009L74 108.004L74 108.002C74 108.002 74 108 72 108H74Z" fill="#061134"/>
<path fill-rule="evenodd" clip-rule="evenodd" d="M68.0021 70C68.0021 70 68 70 68 68V70H48C44.3498 70 41.7473 70.9068 39.8634 72.1693C37.9671 73.44 36.6765 75.1541 35.7943 76.9459C34.0022 80.5861 34 84.333 34 84.5H30V84.499C30 84.1581 30 79.6594 32.2057 75.1791C33.3235 72.9084 35.0329 70.5912 37.6366 68.8464C40.2527 67.0932 43.6502 66 48 66H68L68.0136 65.9998C68.0328 65.9995 68.0663 65.9988 68.1131 65.9972C68.2067 65.9941 68.3532 65.9875 68.545 65.9738C68.9293 65.9464 69.4914 65.8905 70.1712 65.7772C71.5402 65.549 73.335 65.0964 75.1056 64.2111C76.8683 63.3298 78.5702 62.0391 79.8359 60.1406C81.0932 58.2546 82 55.65 82 52H86C86 56.35 84.9068 59.7454 83.1641 62.3594C81.4298 64.9609 79.1317 66.6702 76.8944 67.7889C74.665 68.9036 72.4598 69.451 70.8288 69.7228C70.0086 69.8595 69.3207 69.9286 68.83 69.9637C68.5843 69.9812 68.3871 69.9903 68.2463 69.995C68.1759 69.9973 68.1195 69.9986 68.0782 69.9993L68.0275 69.9999L68.0108 70L68.021 70Z" fill="#061134"/>
<path fill-rule="evenodd" clip-rule="evenodd" d="M60 60C64.4183 60 68 56.4183 68 52C68 47.5817 64.4183 44 60 44C55.5817 44 52 47.5817 52 52C52 56.4183 55.5817 60 60 60ZM60 64C66.6274 64 72 58.6274 72 52C72 45.3726 66.6274 40 60 40C53.3726 40 48 45.3726 48 52C48 58.6274 53.3726 64 60 64Z" fill="#061134"/>
<path fill-rule="evenodd" clip-rule="evenodd" d="M83.2925 36.7067C83.2925 36.7067 83.2928 36.7071 84 36C84.7072 35.2929 84.7075 35.2933 84.7075 35.2933L84.7089 35.2947L84.7114 35.2972L84.7185 35.3044L84.7411 35.3276C84.7597 35.3468 84.7854 35.3737 84.817 35.4076C84.8803 35.4754 84.9679 35.5718 85.0718 35.693C85.2787 35.9344 85.5546 36.2793 85.8321 36.6955C86.3653 37.4953 87 38.6997 87 40.0003C87 41.4156 86.2439 42.171 85.7333 42.6812C85.7245 42.69 85.7158 42.6987 85.7071 42.7074C85.2176 43.1969 85 43.44 85 44.0003C85 44.5606 85.2176 44.8037 85.7071 45.2932C85.7158 45.3018 85.7245 45.3105 85.7333 45.3193C86.2439 45.8295 87 46.585 87 48.0003H85C85 47.44 84.7824 47.1969 84.2929 46.7074C84.2842 46.6987 84.2755 46.69 84.2667 46.6812C83.7561 46.171 83 45.4156 83 44.0003C83 42.585 83.7561 41.8295 84.2667 41.3193C84.2755 41.3105 84.2842 41.3018 84.2929 41.2932C84.7824 40.8037 85 40.5606 85 40.0003C85 39.3008 84.6347 38.5051 84.1679 37.8048C83.9454 37.4709 83.7213 37.1907 83.5532 36.9945C83.4696 36.897 83.401 36.8215 83.3548 36.7721C83.3318 36.7474 83.3145 36.7294 83.3038 36.7183L83.2925 36.7067Z" fill="#061134"/>
<path fill-rule="evenodd" clip-rule="evenodd" d="M84 30C90.0751 30 95 25.0751 95 19C95 12.9249 90.0751 8 84 8C77.9249 8 73 12.9249 73 19C73 25.0751 77.9249 30 84 30ZM84 34C92.2843 34 99 27.2843 99 19C99 10.7157 92.2843 4 84 4C75.7157 4 69 10.7157 69 19C69 27.2843 75.7157 34 84 34Z" fill="#061134"/>
</svg>

