<svg width="120" height="120" viewBox="0 0 120 120" fill="none" xmlns="http://www.w3.org/2000/svg">
<path d="M21.4994 40.0007C9.99905 47.5006 11.3331 53.0004 11.9998 62.0004C11.9998 62.5004 12.5997 65.8003 14.9994 75.0003C17.999 86.5003 49.4994 87.5003 56.9994 84.0003C64.4994 80.5003 72.4493 50.5894 56.9994 39.0006C47 31.5002 34.0707 31.8024 21.4994 40.0007Z" fill="#E5E1FF"/>
<path fill-rule="evenodd" clip-rule="evenodd" d="M38.0006 92H34.0006C34.0006 91.639 34.0019 88.1839 36.0953 84.7675C38.2876 81.1898 42.5615 78 50.4006 78H69.6007V80C69.6007 78 69.6015 78 69.6025 78L69.6046 78L69.6099 78L69.6243 78.0001L69.6689 78.0005C69.7054 78.001 69.7553 78.002 69.8179 78.0037C69.9431 78.0072 70.1189 78.0139 70.3383 78.027C70.7764 78.053 71.3916 78.1045 72.1258 78.2065C73.5838 78.409 75.5629 78.8176 77.5699 79.6538C79.575 80.4893 81.6914 81.7869 83.3124 83.8131C84.9584 85.8707 86.0006 88.566 86.0006 92H82.0006C82.0006 89.434 81.2428 87.6293 80.1889 86.3119C79.1099 84.9631 77.6263 84.0107 76.0314 83.3462C74.4384 82.6824 72.8175 82.341 71.5755 82.1685C70.9597 82.083 70.45 82.0407 70.1006 82.0199C69.9262 82.0095 69.7927 82.0045 69.7069 82.0022C69.664 82.001 69.6331 82.0004 69.6151 82.0002L69.5979 82H50.4006C43.8397 82 40.9136 84.5602 39.5059 86.8575C38.0006 89.3141 38.0006 91.8571 38.0006 92Z" fill="#061134"/>
<path d="M82.0006 92H86.0006V114C86.0006 115.105 85.1052 116 84.0006 116C82.8961 116 82.0006 115.105 82.0006 114V92Z" fill="#061134"/>
<path d="M34.0006 92H38.0006V114C38.0006 115.105 37.1052 116 36.0006 116C34.8961 116 34.0006 115.105 34.0006 114V92Z" fill="#061134"/>
<path fill-rule="evenodd" clip-rule="evenodd" d="M48.9141 87.8379C46.7032 85.3814 46.0006 82.3592 46.0006 80H50.0006C50.0006 81.6408 50.4981 83.6186 51.8872 85.1621C53.2312 86.6554 55.6417 88 60.0006 88C64.3595 88 66.7701 86.6554 68.1141 85.1621C69.5032 83.6186 70.0006 81.6408 70.0006 80H74.0006C74.0006 82.3592 73.2981 85.3814 71.0872 87.8379C68.8312 90.3446 65.2417 92 60.0006 92C54.7595 92 51.1701 90.3446 48.9141 87.8379Z" fill="#061134"/>
<path fill-rule="evenodd" clip-rule="evenodd" d="M42.0006 62V50H46.0006V62C46.0006 63.0848 46.5475 65.0346 48.5117 66.7397C50.456 68.4274 53.9449 70 60.0006 70C66.0564 70 69.5453 68.4274 71.4896 66.7397C73.4538 65.0346 74.0006 63.0848 74.0006 62V50H78.0006V62C78.0006 64.2486 76.9475 67.2987 74.1117 69.7603C71.256 72.2392 66.7449 74 60.0006 74C53.2564 74 48.7453 72.2392 45.8896 69.7603C43.0538 67.2987 42.0006 64.2486 42.0006 62Z" fill="#061134"/>
<path fill-rule="evenodd" clip-rule="evenodd" d="M69.7832 34.907C61.9999 50.2041 46.5949 52.6022 39.7915 51.8869L40.2098 47.9088C46.0064 48.5183 59.4414 46.412 66.2181 33.093L69.7832 34.907Z" fill="#061134"/>
<path fill-rule="evenodd" clip-rule="evenodd" d="M33.3653 47.3158C32.9854 49.6919 32.9778 51.694 33.2229 53.1953C33.401 54.2854 32.9889 55.506 32.0009 56C31.013 56.494 29.8015 56.0898 29.5232 55.0209C28.9078 52.6573 28.9312 49.7128 29.4155 46.6842C30.0527 42.7004 31.5406 38.2268 33.894 34.023C38.5947 25.6266 46.9573 18 59.1925 18C70.0007 18 77.316 22.0917 82.0283 27.6253C86.68 33.0878 88.6771 39.8085 89.221 44.9997C89.3792 46.509 89.8697 47.9144 90.6939 49.0668C92.4999 51.5918 94.2993 54.5403 95.6584 57.5631C97.0066 60.5618 97.9832 63.7687 98.0007 66.7714C98.0187 69.8411 97.0214 72.7954 94.3479 74.9159C92.1046 76.6952 88.9 77.7086 84.6851 77.9457C83.5822 78.0078 82.6854 77.1046 82.6854 76C82.6854 74.8954 83.5828 74.0095 84.6851 73.9387C88.278 73.7077 90.5168 72.8492 91.8622 71.782C93.3536 70.5991 94.0134 68.9449 94.0008 66.7948C93.9879 64.5777 93.2466 61.9535 92.0101 59.2034C90.7845 56.4774 89.1323 53.7593 87.4404 51.3937C86.1568 49.599 85.4623 47.5109 85.2428 45.4166C84.7579 40.789 82.9742 34.9056 78.9829 30.2187C75.0522 25.6029 68.8622 22 59.1925 22C48.8745 22 41.6412 28.3734 37.3843 35.977C35.259 39.7732 33.9277 43.7996 33.3653 47.3158Z" fill="#061134"/>
<path fill-rule="evenodd" clip-rule="evenodd" d="M54.5864 56L51.2935 52.7071L52.7077 51.2929L57.4149 56L52.7077 60.7071L51.2935 59.2929L54.5864 56Z" fill="#061134"/>
<path fill-rule="evenodd" clip-rule="evenodd" d="M65.4149 56L68.7077 52.7071L67.2935 51.2929L62.5864 56L67.2935 60.7071L68.7077 59.2929L65.4149 56Z" fill="#061134"/>
<path fill-rule="evenodd" clip-rule="evenodd" d="M57.0006 67.0013C57.0006 67.0007 57.0006 67.0001 56.0006 67C55.0006 66.9999 55.0006 66.9993 55.0006 66.9986L55.0006 66.9972L55.0007 66.9941L55.0007 66.9872L55.001 66.9698C55.0013 66.9568 55.0018 66.9407 55.0026 66.9218C55.0043 66.8842 55.0074 66.8351 55.013 66.7762C55.0242 66.6588 55.0456 66.5004 55.087 66.3143C55.1692 65.9446 55.3341 65.4472 55.6687 64.9453C56.3768 63.8831 57.7094 63 60.0006 63C62.2919 63 63.6244 63.8831 64.3325 64.9453C64.6671 65.4473 64.8319 65.9447 64.914 66.3144C64.9554 66.5005 64.9768 66.6589 64.988 66.7763C64.9936 66.8352 64.9967 66.8843 64.9984 66.9219C64.9992 66.9408 64.9997 66.9569 65 66.9699L65.0003 66.9873L65.0003 66.9942L65.0003 66.9973V66.9987C65.0003 66.9994 65.0003 67 64.0003 67C63.0003 67 63.0003 67.0006 63.0003 67.0012V67.0024L63.0003 67.0047L63.0004 67.0084L63.0004 67.0129C63.0005 67.0139 63.0005 67.0136 63.0004 67.0129C63.0004 67.0124 63.0004 67.0119 63.0003 67.0107C63.0001 67.0044 62.9992 66.989 62.997 66.9659C62.9926 66.9192 62.9828 66.8432 62.9616 66.7481C62.9188 66.5553 62.8337 66.3027 62.6683 66.0547C62.3765 65.6169 61.7092 65 60.0006 65C58.2921 65 57.6247 65.6169 57.3328 66.0547C57.1674 66.3028 57.0822 66.5554 57.0393 66.7482C57.0182 66.8433 57.0084 66.9193 57.004 66.966C57.0017 66.9891 57.0009 67.0045 57.0006 67.0108C57.0005 67.0139 57.0005 67.0147 57.0005 67.013L57.0006 67.0085L57.0006 67.0048L57.0006 67.0025L57.0006 67.0013Z" fill="#061134"/>
<path fill-rule="evenodd" clip-rule="evenodd" d="M20.7495 54.8412L25.2013 61.9262L35.5367 59.733L31.4376 70.606L38.634 78.2414H29.5006V87.0024L23.5839 82.8173L21.9036 87.2745L17.2918 83.6047L8.25453 86.0018L11.2498 76.4676L3.47266 72.9312L11.2459 68.8075L6.61733 63.8966H16.4822L20.7495 54.8412ZM15.884 67.8966L17.7554 69.8822L12.5286 72.655L16.1264 74.291L14.2468 80.274L18.2094 79.2229L20.0977 80.7255L21.6673 76.5621L25.5006 79.2735V74.2414H29.3673L26.8137 71.5319L29.2146 65.1636L23.3 66.4187L21.2517 63.1588L19.0191 67.8966H15.884Z" fill="#061134"/>
<path fill-rule="evenodd" clip-rule="evenodd" d="M62.3829 43.1759C68.0722 51.0029 75.1091 52.3143 80.1474 51.9435L79.8538 47.9543C75.8919 48.2459 70.3294 47.3051 65.6184 40.8241L62.3829 43.1759Z" fill="#061134"/>
<path fill-rule="evenodd" clip-rule="evenodd" d="M59.9997 4C61.1043 4 61.9997 4.89543 61.9997 6V10C61.9997 11.1046 61.1043 12 59.9997 12C58.8952 12 57.9997 11.1046 57.9997 10V6C57.9997 4.89543 58.8952 4 59.9997 4Z" fill="#8673FF"/>
<path fill-rule="evenodd" clip-rule="evenodd" d="M32.9997 11.5361C33.9563 10.9838 35.1795 11.3116 35.7318 12.2682L37.7318 15.7323C38.2841 16.6889 37.9563 17.9121 36.9997 18.4643C36.0431 19.0166 34.82 18.6889 34.2677 17.7323L32.2677 14.2682C31.7154 13.3116 32.0431 12.0884 32.9997 11.5361Z" fill="#8673FF"/>
<path fill-rule="evenodd" clip-rule="evenodd" d="M86.5359 11.5361C85.5793 10.9838 84.3561 11.3116 83.8038 12.2682L81.8038 15.7323C81.2515 16.6889 81.5793 17.9121 82.5359 18.4643C83.4924 19.0166 84.7156 18.6889 85.2679 17.7323L87.2679 14.2682C87.8202 13.3116 87.4924 12.0884 86.5359 11.5361Z" fill="#8673FF"/>
<path fill-rule="evenodd" clip-rule="evenodd" d="M18.5359 30.5361C19.0881 29.5795 20.3113 29.2518 21.2679 29.8041L24.732 31.8041C25.6886 32.3564 26.0163 33.5795 25.4641 34.5361C24.9118 35.4927 23.6886 35.8205 22.732 35.2682L19.2679 33.2682C18.3113 32.7159 17.9836 31.4927 18.5359 30.5361Z" fill="#8673FF"/>
<path fill-rule="evenodd" clip-rule="evenodd" d="M101 30.5361C100.447 29.5795 99.2243 29.2518 98.2677 29.8041L94.8036 31.8041C93.847 32.3564 93.5192 33.5795 94.0715 34.5361C94.6238 35.4927 95.847 35.8205 96.8036 35.2682L100.268 33.2682C101.224 32.7159 101.552 31.4927 101 30.5361Z" fill="#8673FF"/>
</svg>

